<?xml version="1.0" encoding="UTF-8" standalone="no"?>
<!DOCTYPE svg PUBLIC "-//W3C//DTD SVG 1.1//EN" "http://www.w3.org/Graphics/SVG/1.1/DTD/svg11.dtd">
<svg width="100%" height="100%" viewBox="0 0 1024 1024" version="1.1" xmlns="http://www.w3.org/2000/svg" xmlns:xlink="http://www.w3.org/1999/xlink" xml:space="preserve" xmlns:serif="http://www.serif.com/" style="fill-rule:evenodd;clip-rule:evenodd;stroke-linejoin:round;stroke-miterlimit:2;">
    <path d="M304.841,752L498.831,864L692.82,752L775.959,800L498.831,960L110.851,736L304.841,624L304.841,752ZM803.672,336L609.682,224L609.682,128L886.81,288L886.81,736L692.82,624L803.672,560L803.672,336ZM475.401,567.203L673.862,369.686C683.251,360.342 698.459,360.378 707.803,369.767L741.663,403.789C751.007,413.178 750.971,428.386 741.582,437.73L492.088,686.037C482.699,695.381 467.491,695.345 458.147,685.956L322.706,549.868C313.362,540.48 313.399,525.271 322.787,515.927L356.809,482.067C366.198,472.723 381.406,472.76 390.75,482.148L475.401,567.203ZM110.851,608L110.851,288L498.831,64L498.831,288L387.979,224L193.99,336L193.99,560L110.851,608Z" />
</svg>
