<?xml version="1.0" encoding="UTF-8" standalone="no"?>
<!DOCTYPE svg PUBLIC "-//W3C//DTD SVG 1.1//EN" "http://www.w3.org/Graphics/SVG/1.1/DTD/svg11.dtd">
<svg width="100%" height="100%" viewBox="0 0 1024 1024" version="1.1" xmlns="http://www.w3.org/2000/svg" xmlns:xlink="http://www.w3.org/1999/xlink" xml:space="preserve" xmlns:serif="http://www.serif.com/" style="fill-rule:evenodd;clip-rule:evenodd;stroke-linejoin:round;stroke-miterlimit:2;">
    <path d="M752,511.161C884.46,511.161 992,618.889 992,751.58C992,884.272 884.46,992 752,992C619.54,992 512,884.272 512,751.58C512,618.889 619.54,511.161 752,511.161ZM515.444,942.862C514.282,942.872 513.141,942.876 512,942.876C274.193,942.876 81.124,749.807 81.124,512C81.124,274.193 274.193,81.124 512,81.124C749.807,81.124 942.876,274.193 942.876,512C942.876,513.141 942.872,514.282 942.862,515.446C894.12,476.055 832.957,451.406 766.2,448.327L794.49,420.172C805.952,408.764 805.996,390.197 794.589,378.734L753.25,337.198C741.843,325.736 723.275,325.692 711.813,337.1L469.52,578.24L366.174,474.4C354.766,462.938 336.199,462.894 324.737,474.301L283.201,515.639C271.738,527.047 271.694,545.615 283.102,557.077L448.455,723.221C448.725,723.491 448.998,723.755 449.274,724.012C448.43,733.241 448,742.571 448,752C448,824.264 473.269,890.672 515.444,942.862ZM720,720L607.904,720C590.296,720 576,734.296 576,751.904L576,752.096C576,769.704 590.296,784 607.904,784L720,784L720,896.096C720,913.704 734.296,928 751.904,928L752.096,928C769.704,928 784,913.704 784,896.096L784,784L896.096,784C913.704,784 928,769.704 928,752.096L928,751.904C928,734.296 913.704,720 896.096,720L784,720L784,607.904C784,590.296 769.704,576 752.096,576L751.904,576C734.296,576 720,590.296 720,607.904L720,720Z"/>
</svg>
