<?xml version="1.0" encoding="UTF-8" standalone="no"?>
<!DOCTYPE svg PUBLIC "-//W3C//DTD SVG 1.1//EN" "http://www.w3.org/Graphics/SVG/1.1/DTD/svg11.dtd">
<svg width="100%" height="100%" viewBox="0 0 1024 1024" version="1.1" xmlns="http://www.w3.org/2000/svg" xmlns:xlink="http://www.w3.org/1999/xlink" xml:space="preserve" xmlns:serif="http://www.serif.com/" style="fill-rule:evenodd;clip-rule:evenodd;stroke-linejoin:round;stroke-miterlimit:2;">
    <path d="M752,511.161C884.46,511.161 992,618.889 992,751.58C992,884.272 884.46,992 752,992C619.54,992 512,884.272 512,751.58C512,618.889 619.54,511.161 752,511.161ZM720,720L607.904,720C590.296,720 576,734.296 576,751.904L576,752.096C576,769.704 590.296,784 607.904,784L720,784L720,896.096C720,913.704 734.296,928 751.904,928L752.096,928C769.704,928 784,913.704 784,896.096L784,784L896.096,784C913.704,784 928,769.704 928,752.096L928,751.904C928,734.296 913.704,720 896.096,720L784,720L784,607.904C784,590.296 769.704,576 752.096,576L751.904,576C734.296,576 720,590.296 720,607.904L720,720ZM458.57,831.688L156.755,831.688C123.224,831.688 96,804.465 96,770.933L96,380.444C96,378.757 96.069,377.086 96.204,375.432C95.339,366.266 97.206,356.757 102.149,348.183L178.734,215.338C186.774,201.391 201.035,193.247 216,192.388L216,192.312L436,192.312L436,193.081C448.777,195.441 460.484,203.165 467.492,215.283L527.873,319.688L867.245,319.688C900.776,319.688 928,346.912 928,380.444L928,504.166C878.318,468.804 817.569,448 752,448C584.218,448 448,584.218 448,752C448,779.567 451.677,806.281 458.57,831.688Z"/>
</svg>
