<?xml version="1.0" encoding="UTF-8" standalone="no"?>
<!DOCTYPE svg PUBLIC "-//W3C//DTD SVG 1.1//EN" "http://www.w3.org/Graphics/SVG/1.1/DTD/svg11.dtd">
<svg width="100%" height="100%" viewBox="0 0 1024 1024" version="1.1" xmlns="http://www.w3.org/2000/svg" xmlns:xlink="http://www.w3.org/1999/xlink" xml:space="preserve" xmlns:serif="http://www.serif.com/" style="fill-rule:evenodd;clip-rule:evenodd;stroke-linejoin:round;stroke-miterlimit:2;">
    <path d="M752,511.161C884.46,511.161 992,618.889 992,751.58C992,884.272 884.46,992 752,992C619.54,992 512,884.272 512,751.58C512,618.889 619.54,511.161 752,511.161ZM720,720L607.904,720C590.296,720 576,734.296 576,751.904L576,752.096C576,769.704 590.296,784 607.904,784L720,784L720,896.096C720,913.704 734.296,928 751.904,928L752.096,928C769.704,928 784,913.704 784,896.096L784,784L896.096,784C913.704,784 928,769.704 928,752.096L928,751.904C928,734.296 913.704,720 896.096,720L784,720L784,607.904C784,590.296 769.704,576 752.096,576L751.904,576C734.296,576 720,590.296 720,607.904L720,720ZM256,688C300.153,688 336,723.847 336,768C336,812.153 300.153,848 256,848C211.847,848 176,812.153 176,768C176,723.847 211.847,688 256,688ZM451.775,704C449.29,719.648 448,735.675 448,752C448,779.684 451.709,806.509 458.655,832L448,832C412.677,832 384,803.323 384,768C384,732.677 412.677,704 448,704L451.775,704ZM256,432C300.153,432 336,467.847 336,512C336,556.153 300.153,592 256,592C211.847,592 176,556.153 176,512C176,467.847 211.847,432 256,432ZM752,448C649.787,448 559.289,498.554 504.166,576L448,576C412.677,576 384,547.323 384,512C384,476.677 412.677,448 448,448L752,448ZM752,448L768,448C772.592,448 777.072,448.485 781.388,449.405C771.722,448.476 761.916,448 752,448ZM256,176C300.153,176 336,211.847 336,256C336,300.153 300.153,336 256,336C211.847,336 176,300.153 176,256C176,211.847 211.847,176 256,176ZM448,320C412.677,320 384,291.323 384,256C384,220.677 412.677,192 448,192L768,192C803.323,192 832,220.677 832,256C832,291.323 803.323,320 768,320L448,320Z"/>
</svg>
