<?xml version="1.0" encoding="UTF-8" standalone="no"?>
<!DOCTYPE svg PUBLIC "-//W3C//DTD SVG 1.1//EN" "http://www.w3.org/Graphics/SVG/1.1/DTD/svg11.dtd">
<svg width="100%" height="100%" viewBox="0 0 1024 1024" version="1.1" xmlns="http://www.w3.org/2000/svg" xmlns:xlink="http://www.w3.org/1999/xlink" xml:space="preserve" xmlns:serif="http://www.serif.com/" style="fill-rule:evenodd;clip-rule:evenodd;stroke-linejoin:round;stroke-miterlimit:2;">
    <path d="M752,511.161C884.46,511.161 992,618.889 992,751.58C992,884.272 884.46,992 752,992C619.54,992 512,884.272 512,751.58C512,618.889 619.54,511.161 752,511.161ZM720,720L607.904,720C590.296,720 576,734.296 576,751.904L576,752.096C576,769.704 590.296,784 607.904,784L720,784L720,896.096C720,913.704 734.296,928 751.904,928L752.096,928C769.704,928 784,913.704 784,896.096L784,784L896.096,784C913.704,784 928,769.704 928,752.096L928,751.904C928,734.296 913.704,720 896.096,720L784,720L784,607.904C784,590.296 769.704,576 752.096,576L751.904,576C734.296,576 720,590.296 720,607.904L720,720ZM448.414,767.972L158.129,477.665C149.837,469.373 145.247,458.772 144.357,447.926C144.122,446.267 144,444.569 144,442.842L144,180.038C144,160.148 160.148,144 180.038,144L439.853,144C453.519,142.687 467.646,147.259 478.102,157.716L768.823,448.459C763.239,448.154 757.637,448 752,448C584.218,448 448,584.218 448,752C448,757.352 448.139,762.672 448.414,767.972ZM288,216C327.738,216 360,248.262 360,288C360,327.738 327.738,360 288,360C248.262,360 216,327.738 216,288C216,248.262 248.262,216 288,216Z"/>
</svg>
