<?xml version="1.0" encoding="UTF-8" standalone="no"?>
<!DOCTYPE svg PUBLIC "-//W3C//DTD SVG 1.1//EN" "http://www.w3.org/Graphics/SVG/1.1/DTD/svg11.dtd">
<svg width="100%" height="100%" viewBox="0 0 1024 1024" version="1.1" xmlns="http://www.w3.org/2000/svg" xmlns:xlink="http://www.w3.org/1999/xlink" xml:space="preserve" xmlns:serif="http://www.serif.com/" style="fill-rule:evenodd;clip-rule:evenodd;stroke-linejoin:round;stroke-miterlimit:2;">
    <path d="M752,511.161C884.46,511.161 992,618.889 992,751.58C992,884.272 884.46,992 752,992C619.54,992 512,884.272 512,751.58C512,618.889 619.54,511.161 752,511.161ZM607.037,652.218L851.698,897.022C823.348,916.558 789,928 752,928C654.863,928 576,849.137 576,752C576,714.962 587.466,680.58 607.037,652.218ZM416,896L256,896L256,575.212L127.957,575.161C110.313,575.154 95.993,560.823 96,543.178L96,543.118C96.004,531.972 101.725,522.153 110.384,516.435L488.893,137.781C497.729,128.942 510.514,126.431 521.592,130.25C526.842,131.623 531.806,134.365 535.916,138.477L868.448,471.136C832.575,456.23 793.241,448 752,448C636.297,448 535.605,512.778 484.251,608L416,608L416,896ZM896.965,851.78L652.305,606.976C680.652,587.442 715,576 752,576C849.137,576 928,654.863 928,752C928,789.038 916.534,823.42 896.965,851.78Z"/>
</svg>
