<?xml version="1.0" encoding="UTF-8" standalone="no"?>
<!DOCTYPE svg PUBLIC "-//W3C//DTD SVG 1.1//EN" "http://www.w3.org/Graphics/SVG/1.1/DTD/svg11.dtd">
<svg width="100%" height="100%" viewBox="0 0 1024 1024" version="1.1" xmlns="http://www.w3.org/2000/svg" xmlns:xlink="http://www.w3.org/1999/xlink" xml:space="preserve" xmlns:serif="http://www.serif.com/" style="fill-rule:evenodd;clip-rule:evenodd;stroke-linejoin:round;stroke-miterlimit:2;">
    <path d="M579.681,101.543C534.863,94.152 489.137,94.152 444.319,101.543L422.868,255.329C390.367,266.615 360.306,283.97 334.282,306.473L190.374,248.158C161.565,283.276 138.702,322.876 122.693,365.385L245.15,460.855C238.674,494.644 238.674,529.356 245.15,563.145L122.693,658.615C138.702,701.124 161.565,740.724 190.374,775.842L334.282,717.527C360.306,740.03 390.367,757.385 422.868,768.671L444.319,922.457C489.137,929.848 534.863,929.848 579.681,922.457L601.132,768.671C633.633,757.385 663.694,740.03 689.718,717.527L833.626,775.842C862.435,740.724 885.298,701.124 901.307,658.615L778.85,563.145C785.326,529.356 785.326,494.644 778.85,460.855L901.307,365.385C885.298,322.876 862.435,283.276 833.626,248.158L689.718,306.473C663.694,283.97 633.633,266.615 601.132,255.329L579.681,101.543ZM512,350.491C601.139,350.491 673.509,422.861 673.509,512C673.509,601.139 601.139,673.509 512,673.509C422.861,673.509 350.491,601.139 350.491,512C350.491,422.861 422.861,350.491 512,350.491Z"/>
</svg>
