<?xml version="1.0" encoding="UTF-8" standalone="no"?>
<!DOCTYPE svg PUBLIC "-//W3C//DTD SVG 1.1//EN" "http://www.w3.org/Graphics/SVG/1.1/DTD/svg11.dtd">
<svg width="100%" height="100%" viewBox="0 0 1024 1024" version="1.1" xmlns="http://www.w3.org/2000/svg" xmlns:xlink="http://www.w3.org/1999/xlink" xml:space="preserve" xmlns:serif="http://www.serif.com/" style="fill-rule:evenodd;clip-rule:evenodd;stroke-linejoin:round;stroke-miterlimit:2;">
    <path d="M511.925,385.49L270.232,144.198C253.641,127.634 226.724,127.656 210.16,144.247L179.748,174.71C163.184,191.301 163.206,218.219 179.797,234.782L421.49,476.075L180.198,717.768C163.634,734.359 163.656,761.276 180.247,777.84L210.71,808.252C227.301,824.816 254.219,824.794 270.782,808.203L512.075,566.51L753.768,807.802C770.359,824.366 797.276,824.344 813.84,807.753L844.252,777.29C860.816,760.699 860.794,733.781 844.203,717.218L602.51,475.925L843.802,234.232C860.366,217.641 860.344,190.724 843.753,174.16L813.29,143.748C796.699,127.184 769.781,127.206 753.218,143.797L511.925,385.49Z"/>
</svg>
