<?xml version="1.0" encoding="UTF-8" standalone="no"?>
<!DOCTYPE svg PUBLIC "-//W3C//DTD SVG 1.1//EN" "http://www.w3.org/Graphics/SVG/1.1/DTD/svg11.dtd">
<svg width="100%" height="100%" viewBox="0 0 1024 1024" version="1.1" xmlns="http://www.w3.org/2000/svg" xmlns:xlink="http://www.w3.org/1999/xlink" xml:space="preserve" xmlns:serif="http://www.serif.com/" style="fill-rule:evenodd;clip-rule:evenodd;stroke-linejoin:round;stroke-miterlimit:2;">
    <path d="M512,398.841L734.604,176.149C755.322,155.423 788.969,155.417 809.695,176.134L847.749,214.174C868.475,234.891 868.481,268.538 847.764,289.264L625.115,512L847.764,734.736C868.481,755.462 868.475,789.109 847.749,809.826L809.695,847.866C788.969,868.583 755.322,868.577 734.604,847.851L512,625.159L289.396,847.851C268.678,868.577 235.031,868.583 214.305,847.866L176.251,809.826C155.525,789.109 155.519,755.462 176.236,734.736L398.885,512L176.236,289.264C155.519,268.538 155.525,234.891 176.251,214.174L214.305,176.134C235.031,155.417 268.678,155.423 289.396,176.149L512,398.841Z"/>
</svg>
