<?xml version="1.0" encoding="UTF-8" standalone="no"?>
<!DOCTYPE svg PUBLIC "-//W3C//DTD SVG 1.1//EN" "http://www.w3.org/Graphics/SVG/1.1/DTD/svg11.dtd">
<svg width="100%" height="100%" viewBox="0 0 1024 1024" version="1.1" xmlns="http://www.w3.org/2000/svg" xmlns:xlink="http://www.w3.org/1999/xlink" xml:space="preserve" xmlns:serif="http://www.serif.com/" style="fill-rule:evenodd;clip-rule:evenodd;stroke-linejoin:round;stroke-miterlimit:2;">
    <path d="M112,576L176,576L176,768C176,785.661 190.339,800 208,800L208.207,800.001C225.773,800.112 240,814.408 240,832C240,849.661 225.661,864 208,864L207.69,864C154.844,863.828 112,820.878 112,768L112,576ZM848,768L848,576L912,576L912,768L912,768.31C911.828,821.05 869.05,863.829 816.31,864L816,864C798.339,864 784,849.661 784,832C784,814.339 798.339,800 816,800L816.207,799.999C833.773,799.888 848,785.592 848,768ZM489.26,249.495C495.061,243.634 503.109,240 512,240C520.891,240 528.939,243.634 534.74,249.495L534.745,249.49L670.51,385.255L670.505,385.26C676.366,391.061 680,399.109 680,408C680,425.661 665.661,440 648,440C639.109,440 631.061,436.366 625.26,430.505L625.255,430.51L544,349.255L544,752C544,769.661 529.661,784 512,784C494.339,784 480,769.661 480,752L480,349.255L398.745,430.51L398.74,430.505C392.939,436.366 384.891,440 376,440C358.339,440 344,425.661 344,408C344,399.109 347.634,391.061 353.495,385.26L353.49,385.255L489.255,249.49L489.26,249.495ZM208,160C225.661,160 240,174.339 240,192C240,209.661 225.661,224 208,224C190.339,224 176,238.339 176,256L176,448L176,448.31C175.92,472.767 166.678,495.082 151.53,512C166.743,528.987 176,551.421 176,576L112,576C112,558.339 97.661,544 80,544L79.793,543.999C62.227,543.888 48,529.592 48,512C48,494.339 62.339,480 80,480C97.661,480 112,465.661 112,448L112,256L112,255.69C112.172,202.844 155.122,160 208,160ZM816,160C868.984,160 912,203.016 912,256L912,448C912,465.661 926.339,480 944,480C961.661,480 976,494.339 976,512C976,529.592 961.773,543.888 944.207,543.999L944,544C926.339,544 912,558.339 912,576L848,576C848,551.421 857.257,528.987 872.47,512C857.257,495.013 848,472.579 848,448L848,256C848,238.339 833.661,224 816,224C798.339,224 784,209.661 784,192C784,174.339 798.339,160 816,160Z"/>
</svg>
