<?xml version="1.0" encoding="UTF-8" standalone="no"?>
<!DOCTYPE svg PUBLIC "-//W3C//DTD SVG 1.1//EN" "http://www.w3.org/Graphics/SVG/1.1/DTD/svg11.dtd">
<svg width="100%" height="100%" viewBox="0 0 1024 1024" version="1.1" xmlns="http://www.w3.org/2000/svg" xmlns:xlink="http://www.w3.org/1999/xlink" xml:space="preserve" xmlns:serif="http://www.serif.com/" style="fill-rule:evenodd;clip-rule:evenodd;stroke-linejoin:round;stroke-miterlimit:2;">
    <path d="M100.493,396.202C99.598,390.158 99.899,383.838 101.584,377.566L151.216,192.802C157.803,168.283 183.056,153.725 207.575,160.311L208.739,160.624L456,160.624L456,160.714C477.392,159.366 497.51,173.205 503.284,194.699L528.347,288L784,288C863.476,288 928,352.524 928,432L928,720C928,799.476 863.476,864 784,864L240,864C160.524,864 96,799.476 96,720L96,432C96,419.642 97.56,407.645 100.493,396.202Z"/>
</svg>
