<?xml version="1.0" encoding="UTF-8" standalone="no"?>
<!DOCTYPE svg PUBLIC "-//W3C//DTD SVG 1.1//EN" "http://www.w3.org/Graphics/SVG/1.1/DTD/svg11.dtd">
<svg width="100%" height="100%" viewBox="0 0 1024 1024" version="1.1" xmlns="http://www.w3.org/2000/svg" xmlns:xlink="http://www.w3.org/1999/xlink" xml:space="preserve" xmlns:serif="http://www.serif.com/" style="fill-rule:evenodd;clip-rule:evenodd;stroke-linejoin:round;stroke-miterlimit:2;">
    <path d="M436,193.081C448.777,195.441 460.484,203.165 467.492,215.283L527.873,319.688L867.245,319.688C900.776,319.688 928,346.912 928,380.444L928,770.933C928,804.465 900.776,831.688 867.245,831.688L156.755,831.688C123.224,831.688 96,804.465 96,770.933L96,380.444C96,378.757 96.069,377.086 96.204,375.432C95.339,366.266 97.206,356.757 102.149,348.183L178.734,215.338C186.774,201.391 201.035,193.247 216,192.388L216,192.312L436,192.312L436,193.081Z"/>
</svg>
