<?xml version="1.0" encoding="UTF-8" standalone="no"?>
<!DOCTYPE svg PUBLIC "-//W3C//DTD SVG 1.1//EN" "http://www.w3.org/Graphics/SVG/1.1/DTD/svg11.dtd">
<svg width="100%" height="100%" viewBox="0 0 1024 1024" version="1.1" xmlns="http://www.w3.org/2000/svg" xmlns:xlink="http://www.w3.org/1999/xlink" xml:space="preserve" xmlns:serif="http://www.serif.com/" style="fill-rule:evenodd;clip-rule:evenodd;stroke-linejoin:round;stroke-miterlimit:2;">
    <g transform="matrix(0.576963,-2.16014,-1.44719,-0.386538,264.391,1182.34)">
        <path d="M264.068,96L117.387,96C105.583,96 96,110.305 96,127.924L96,128.076C96,145.695 105.583,160 117.387,160L458.613,160C470.417,160 480,145.695 480,128.076L480,127.924C480,123.699 479.449,119.665 478.449,115.973C478.217,115.119 477.962,114.283 477.683,113.467C475.842,107.385 471.184,91.677 469.395,82.604C467.142,71.18 465.142,59.358 464.931,47.429C464.708,34.864 465.635,20.07 468.057,7.216C470.479,-5.639 475.18,-18.045 479.463,-29.697C483.684,-41.18 490.007,-51.29 493.754,-62.695C497.44,-73.912 500.06,-85.953 501.946,-98.125C503.94,-110.992 505.234,-127.652 505.717,-139.897C506.134,-150.454 505.796,-161.385 504.845,-171.596C503.91,-181.644 502.289,-191.603 500.014,-201.162C497.976,-209.727 492.507,-226.762 490.416,-233.189C490.164,-234.054 489.887,-234.9 489.587,-235.723C485.961,-245.662 478.899,-252.413 470.79,-252.413L308.961,-252.413C297.157,-252.413 287.574,-238.108 287.574,-220.489L287.574,-220.336C287.574,-216.788 287.963,-213.375 288.68,-210.185C288.918,-209.127 289.192,-208.093 289.5,-207.087C290.931,-201.618 293.839,-190.191 294.996,-183.395C296.802,-172.788 299.325,-159.028 299.512,-146.543C299.7,-134.031 297.739,-118.48 296.125,-108.318C294.857,-100.334 292.473,-92.76 289.828,-85.567C286.43,-76.326 279.75,-64.365 275.737,-52.874C271.52,-40.8 267.169,-26.946 264.527,-13.12C261.664,1.862 259.024,20.618 258.558,37.016C258.1,53.164 259.325,70.489 261.735,85.27C262.245,88.397 263.078,92.111 264.068,96ZM426.03,96L310.628,96C309.545,91.83 308.568,87.78 307.942,84.572C305.707,73.114 303.69,61.326 303.478,49.397C303.255,36.832 304.183,22.038 306.605,9.183C309.027,-3.671 313.727,-16.077 318.01,-27.729C322.231,-39.212 328.554,-49.323 332.301,-60.727C335.987,-71.944 338.607,-83.985 340.493,-96.157C342.487,-109.024 343.781,-125.684 344.264,-137.929C344.681,-148.486 344.343,-159.418 343.392,-169.628C342.818,-175.805 341.837,-182.318 340.728,-188.413L455.879,-188.413C456.096,-187.326 456.289,-186.3 456.449,-185.363C458.254,-174.756 460.777,-160.996 460.965,-148.511C461.153,-135.998 459.192,-120.448 457.578,-110.285C456.31,-102.301 453.926,-94.728 451.281,-87.535C447.883,-78.294 441.203,-66.333 437.19,-54.842C432.973,-42.768 428.622,-28.914 425.98,-15.088C423.117,-0.106 420.477,18.65 420.011,35.048C419.553,51.196 420.778,68.522 423.188,83.302C423.783,86.954 424.819,91.404 426.03,96Z"/>
    </g>
</svg>
