<?xml version="1.0" encoding="UTF-8" standalone="no"?>
<!DOCTYPE svg PUBLIC "-//W3C//DTD SVG 1.1//EN" "http://www.w3.org/Graphics/SVG/1.1/DTD/svg11.dtd">
<svg width="100%" height="100%" viewBox="0 0 1024 1024" version="1.1" xmlns="http://www.w3.org/2000/svg" xmlns:xlink="http://www.w3.org/1999/xlink" xml:space="preserve" xmlns:serif="http://www.serif.com/" style="fill-rule:evenodd;clip-rule:evenodd;stroke-linecap:round;stroke-linejoin:round;stroke-miterlimit:1.5;">
    <g id="本体">
        <g transform="matrix(0.576963,-2.16014,-1.44719,-0.386538,264.391,1182.34)">
            <path d="M480,127.924C480,110.305 470.417,96 458.613,96L117.387,96C105.583,96 96,110.305 96,127.924L96,128.076C96,145.695 105.583,160 117.387,160L458.613,160C470.417,160 480,145.695 480,128.076L480,127.924Z" style="stroke-width:0.53px;"/>
        </g>
        <g transform="matrix(0.289353,-1.08333,-1.44719,-0.386538,906.752,799.819)">
            <path d="M480,127.924C480,110.305 460.891,96 437.354,96L138.646,96C115.109,96 96,110.305 96,127.924L96,128.076C96,145.695 115.109,160 138.646,160L437.354,160C460.891,160 480,145.695 480,128.076L480,127.924Z" style="stroke-width:0.76px;"/>
        </g>
        <g transform="matrix(1.00803,-2.73199e-17,0,0.984305,-6.79518,4.33195)">
            <path d="M348,141.895C368.886,164.227 410.658,208.89 452,220.061C493.342,231.232 548.053,212.64 596.053,208.923C644.036,205.207 698.342,186.577 740,197.757C781.658,208.936 824.553,253.645 846,276" style="stroke-width:100.38px;"/>
        </g>
        <g transform="matrix(1.00803,-2.73199e-17,0,0.984305,-90.7952,326.332)">
            <path d="M348,141.895C368.886,164.227 410.658,208.89 452,220.061C493.342,231.232 548.053,212.64 596.053,208.923C644.036,205.207 698.342,186.577 740,197.757C781.658,208.936 824.553,253.645 846,276" style="stroke-width:100.38px;"/>
        </g>
    </g>
</svg>
