<?xml version="1.0" encoding="UTF-8" standalone="no"?>
<!DOCTYPE svg PUBLIC "-//W3C//DTD SVG 1.1//EN" "http://www.w3.org/Graphics/SVG/1.1/DTD/svg11.dtd">
<svg width="100%" height="100%" viewBox="0 0 1024 1024" version="1.1" xmlns="http://www.w3.org/2000/svg" xmlns:xlink="http://www.w3.org/1999/xlink" xml:space="preserve" xmlns:serif="http://www.serif.com/" style="fill-rule:evenodd;clip-rule:evenodd;stroke-linejoin:round;stroke-miterlimit:2;">
    <path d="M96.165,252.775C97.576,238.39 108.552,226.793 122.642,224.438C124.796,224.068 126.967,223.925 129.121,224L748.065,223.774C751.128,223.773 754.091,224.205 756.896,225.011C764.931,227.081 772.157,232.259 776.613,240.014L923.476,495.617C923.938,496.392 924.366,497.184 924.759,497.992C926.957,502.48 928.005,507.27 928,512.004C928.005,516.738 926.957,521.528 924.759,526.016C924.366,526.824 923.938,527.617 923.476,528.391L776.613,783.994C770.182,795.186 757.981,801.011 745.909,799.874L718.899,799.884C717,800.056 715.079,800.058 713.162,799.886L127.947,800.099C110.84,800.105 96.852,786.624 96.048,769.713C95.721,763.759 97.055,757.647 100.244,752.095L238.203,511.99L101.05,273.287C98.594,269.461 96.932,265.076 96.298,260.367C95.949,257.834 95.909,255.284 96.165,252.775ZM335.476,495.622C335.938,496.397 336.366,497.19 336.759,497.998C338.957,502.486 340.005,507.276 340,512.01C340.005,516.744 338.957,521.533 336.759,526.022C336.366,526.83 335.938,527.622 335.476,528.397L225.334,720.089L706.743,719.914L826.203,512.004L706.698,304.015L225.483,304.19L335.476,495.622Z"/>
</svg>
