<?xml version="1.0" encoding="UTF-8" standalone="no"?>
<!DOCTYPE svg PUBLIC "-//W3C//DTD SVG 1.1//EN" "http://www.w3.org/Graphics/SVG/1.1/DTD/svg11.dtd">
<svg width="100%" height="100%" viewBox="0 0 1024 1024" version="1.1" xmlns="http://www.w3.org/2000/svg" xmlns:xlink="http://www.w3.org/1999/xlink" xml:space="preserve" xmlns:serif="http://www.serif.com/" style="fill-rule:evenodd;clip-rule:evenodd;stroke-linejoin:round;stroke-miterlimit:2;">
    <path d="M561.152,59.236C579.856,43.119 608.157,43.938 625.887,61.686L626.43,62.231C637.182,72.994 641.705,87.638 640,101.665L640,148.097C807.056,202.145 928,359.06 928,544C928,773.597 741.597,960 512,960C282.403,960 96,773.597 96,544C96,517.508 117.508,496 144,496C170.492,496 192,517.508 192,544C192,720.613 335.387,864 512,864C688.613,864 832,720.613 832,544C832,412.9 752.992,300.108 640.041,250.684C641.629,264.605 637.093,279.096 626.43,289.769L625.887,290.314C608.157,308.062 579.856,308.881 561.152,292.764C559.536,291.407 558.011,289.945 556.587,288.389L477.954,209.837C468.634,200.526 463.982,188.3 464,176.078L464,176L464,175.922C463.982,163.7 468.634,151.474 477.954,142.163L556.587,63.611C558.011,62.055 559.536,60.593 561.152,59.236ZM489.624,621.751C482.539,619.505 475.871,615.575 470.254,609.961L284.062,423.882C265.324,405.155 265.315,374.738 284.042,356C302.769,337.262 333.186,337.253 351.924,355.979L504.164,508.127L598.486,413.917C617.079,395.345 647.253,395.363 665.824,413.957L666.368,414.501C684.939,433.095 684.921,463.268 666.328,481.839L539.524,608.493C539.075,608.981 538.611,609.464 538.136,609.94C531.085,616.995 522.377,621.395 513.26,623.14L513.085,623.173L513.002,623.189L512.962,623.196L512.893,623.209L512.801,623.226L512.744,623.236L512.667,623.25L512.556,623.269L512.516,623.276L512.487,623.281L512.372,623.302L512.23,623.326C510.638,623.595 509.019,623.786 507.378,623.894L507.256,623.903L507.113,623.911L507.077,623.913L507.049,623.915L506.95,623.921L506.84,623.927L506.79,623.93L506.738,623.932L506.644,623.937L506.561,623.941L506.502,623.944L506.425,623.948L506.337,623.952L506.276,623.955L506.214,623.957L506.108,623.962L506.029,623.965L505.987,623.966L505.927,623.969L505.788,623.973L505.721,623.976L505.695,623.976L505.639,623.978L505.462,623.983L505.413,623.984L505.399,623.985L505.351,623.986L505.126,623.991L505.1,623.991C504.795,623.997 504.491,624 504.186,624L504.175,624L504.043,624L503.911,623.999L503.899,623.999L503.865,623.999L503.653,623.997L503.618,623.997C498.806,623.942 494.164,623.178 489.792,621.804L489.696,621.774L489.624,621.751Z"/>
</svg>
