<?xml version="1.0" encoding="UTF-8" standalone="no"?>
<!DOCTYPE svg PUBLIC "-//W3C//DTD SVG 1.1//EN" "http://www.w3.org/Graphics/SVG/1.1/DTD/svg11.dtd">
<svg width="100%" height="100%" viewBox="0 0 1024 1024" version="1.1" xmlns="http://www.w3.org/2000/svg" xmlns:xlink="http://www.w3.org/1999/xlink" xml:space="preserve" xmlns:serif="http://www.serif.com/" style="fill-rule:evenodd;clip-rule:evenodd;stroke-linejoin:round;stroke-miterlimit:2;">
    <path d="M80.207,479.999C97.773,479.888 112,465.592 112,448L176,448C176,472.579 166.743,495.013 151.53,512C166.743,528.987 176,551.421 176,576L176,768C176,785.661 190.339,800 208,800L208.207,800.001C225.773,800.112 240,814.408 240,832C240,849.661 225.661,864 208,864L207.69,864C154.844,863.828 112,820.878 112,768L112,576C112,558.339 97.661,544 80,544L79.793,543.999C62.227,543.888 48,529.592 48,512C48,494.339 62.339,480 80,480L80.207,479.999ZM872.47,512C857.257,495.013 848,472.579 848,448L912,448C912,465.661 926.339,480 944,480L944.207,480.001C961.773,480.112 976,494.408 976,512C976,529.592 961.773,543.888 944.207,543.999L944,544C926.339,544 912,558.339 912,576L912,768L912,768.31C911.828,821.05 869.05,863.829 816.31,864L816,864C798.339,864 784,849.661 784,832C784,814.339 798.339,800 816,800L816.207,799.999C833.773,799.888 848,785.592 848,768L848,576L848,575.69C848.08,551.233 857.322,528.918 872.47,512ZM480.001,271.793C480.112,254.227 494.408,240 512,240C529.661,240 544,254.339 544,272L544,674.745L625.255,593.49L625.26,593.495C631.061,587.634 639.109,584 648,584C665.661,584 680,598.339 680,616C680,624.891 676.366,632.939 670.505,638.74L670.51,638.745L534.745,774.51L534.74,774.505C528.939,780.366 520.891,784 512,784C503.109,784 495.061,780.366 489.26,774.505L489.255,774.51L353.49,638.745L353.495,638.74C347.634,632.939 344,624.891 344,616C344,598.339 358.339,584 376,584C384.891,584 392.939,587.634 398.74,593.495L398.745,593.49L480,674.745L480,272L480.001,271.793ZM816.31,160C869.156,160.172 912,203.122 912,256L912,448L848,448L848,256C848,238.339 833.661,224 816,224L815.793,223.999C798.227,223.888 784,209.592 784,192C784,174.339 798.339,160 816,160L816.31,160ZM208.207,160.001C225.773,160.112 240,174.408 240,192C240,209.592 225.773,223.888 208.207,223.999L208,224C190.339,224 176,238.339 176,256L176,448L112,448L112,256L112,255.69C112.172,202.844 155.122,160 208,160L208.207,160.001Z"/>
</svg>
