<?xml version="1.0" encoding="UTF-8" standalone="no"?>
<!DOCTYPE svg PUBLIC "-//W3C//DTD SVG 1.1//EN" "http://www.w3.org/Graphics/SVG/1.1/DTD/svg11.dtd">
<svg width="100%" height="100%" viewBox="0 0 1024 1024" version="1.1" xmlns="http://www.w3.org/2000/svg" xmlns:xlink="http://www.w3.org/1999/xlink" xml:space="preserve" xmlns:serif="http://www.serif.com/" style="fill-rule:evenodd;clip-rule:evenodd;stroke-linejoin:round;stroke-miterlimit:2;">
    <path d="M448,832C412.677,832 384,803.323 384,768C384,732.677 412.677,704 448,704L768,704C803.323,704 832,732.677 832,768C832,803.323 803.323,832 768,832L448,832ZM256,704C291.323,704 320,732.677 320,768C320,803.323 291.323,832 256,832C220.677,832 192,803.323 192,768C192,732.677 220.677,704 256,704ZM448,576C412.677,576 384,547.323 384,512C384,476.677 412.677,448 448,448L768,448C803.323,448 832,476.677 832,512C832,547.323 803.323,576 768,576L448,576ZM256,448C291.323,448 320,476.677 320,512C320,547.323 291.323,576 256,576C220.677,576 192,547.323 192,512C192,476.677 220.677,448 256,448ZM448,320C412.677,320 384,291.323 384,256C384,220.677 412.677,192 448,192L768,192C803.323,192 832,220.677 832,256C832,291.323 803.323,320 768,320L448,320ZM256,192C291.323,192 320,220.677 320,256C320,291.323 291.323,320 256,320C220.677,320 192,291.323 192,256C192,220.677 220.677,192 256,192Z"/>
</svg>
