<?xml version="1.0" encoding="UTF-8" standalone="no"?>
<!DOCTYPE svg PUBLIC "-//W3C//DTD SVG 1.1//EN" "http://www.w3.org/Graphics/SVG/1.1/DTD/svg11.dtd">
<svg width="100%" height="100%" viewBox="0 0 1024 1024" version="1.1" xmlns="http://www.w3.org/2000/svg" xmlns:xlink="http://www.w3.org/1999/xlink" xml:space="preserve" xmlns:serif="http://www.serif.com/" style="fill-rule:evenodd;clip-rule:evenodd;stroke-linejoin:round;stroke-miterlimit:2;">
    <path d="M256,688C300.153,688 336,723.847 336,768C336,812.153 300.153,848 256,848C211.847,848 176,812.153 176,768C176,723.847 211.847,688 256,688ZM448,832C412.677,832 384,803.323 384,768C384,732.677 412.677,704 448,704L768,704C803.323,704 832,732.677 832,768C832,803.323 803.323,832 768,832L448,832ZM256,432C300.153,432 336,467.847 336,512C336,556.153 300.153,592 256,592C211.847,592 176,556.153 176,512C176,467.847 211.847,432 256,432ZM448,576C412.677,576 384,547.323 384,512C384,476.677 412.677,448 448,448L768,448C803.323,448 832,476.677 832,512C832,547.323 803.323,576 768,576L448,576ZM256,176C300.153,176 336,211.847 336,256C336,300.153 300.153,336 256,336C211.847,336 176,300.153 176,256C176,211.847 211.847,176 256,176ZM448,320C412.677,320 384,291.323 384,256C384,220.677 412.677,192 448,192L768,192C803.323,192 832,220.677 832,256C832,291.323 803.323,320 768,320L448,320Z"/>
</svg>
