<?xml version="1.0" encoding="UTF-8" standalone="no"?>
<!DOCTYPE svg PUBLIC "-//W3C//DTD SVG 1.1//EN" "http://www.w3.org/Graphics/SVG/1.1/DTD/svg11.dtd">
<svg width="100%" height="100%" viewBox="0 0 1024 1024" version="1.1" xmlns="http://www.w3.org/2000/svg" xmlns:xlink="http://www.w3.org/1999/xlink" xml:space="preserve" xmlns:serif="http://www.serif.com/" style="fill-rule:evenodd;clip-rule:evenodd;stroke-linejoin:round;stroke-miterlimit:2;">
    <path d="M256,696C295.738,696 328,728.262 328,768C328,807.738 295.738,840 256,840C216.262,840 184,807.738 184,768C184,728.262 216.262,696 256,696ZM448,832C412.677,832 384,803.323 384,768C384,732.677 412.677,704 448,704L768,704C803.323,704 832,732.677 832,768C832,803.323 803.323,832 768,832L448,832ZM256,440C295.738,440 328,472.262 328,512C328,551.738 295.738,584 256,584C216.262,584 184,551.738 184,512C184,472.262 216.262,440 256,440ZM448,576C412.677,576 384,547.323 384,512C384,476.677 412.677,448 448,448L768,448C803.323,448 832,476.677 832,512C832,547.323 803.323,576 768,576L448,576ZM256,184C295.738,184 328,216.262 328,256C328,295.738 295.738,328 256,328C216.262,328 184,295.738 184,256C184,216.262 216.262,184 256,184ZM448,320C412.677,320 384,291.323 384,256C384,220.677 412.677,192 448,192L768,192C803.323,192 832,220.677 832,256C832,291.323 803.323,320 768,320L448,320Z"/>
</svg>
