<?xml version="1.0" encoding="UTF-8" standalone="no"?>
<!DOCTYPE svg PUBLIC "-//W3C//DTD SVG 1.1//EN" "http://www.w3.org/Graphics/SVG/1.1/DTD/svg11.dtd">
<svg width="100%" height="100%" viewBox="0 0 1024 1024" version="1.1" xmlns="http://www.w3.org/2000/svg" xmlns:xlink="http://www.w3.org/1999/xlink" xml:space="preserve" xmlns:serif="http://www.serif.com/" style="fill-rule:evenodd;clip-rule:evenodd;stroke-linejoin:round;stroke-miterlimit:2;">
    <g transform="matrix(1.09091,0,0,0.875,-46.5455,140)">
        <path d="M805.333,352L815.269,352C842.164,352 864,379.224 864,412.755L864,803.245C864,836.776 842.164,864 815.269,864L208.731,864C181.836,864 160,836.776 160,803.245L160,412.755C160,379.224 181.836,352 208.731,352L218.667,352C218.667,150.157 350.105,-13.714 512,-13.714C673.895,-13.714 805.333,150.157 805.333,352ZM306.667,352L717.333,352C717.333,210.71 625.327,96 512,96C398.673,96 306.667,210.71 306.667,352ZM482.667,671.345L482.667,717.714C482.667,737.899 495.81,754.286 512,754.286C528.19,754.286 541.333,737.899 541.333,717.714L541.333,671.345C558.863,658.69 570.667,635.05 570.667,608C570.667,567.631 544.379,534.857 512,534.857C479.621,534.857 453.333,567.631 453.333,608C453.333,635.05 465.137,658.69 482.667,671.345Z"/>
    </g>
</svg>
