<?xml version="1.0" encoding="UTF-8" standalone="no"?>
<!DOCTYPE svg PUBLIC "-//W3C//DTD SVG 1.1//EN" "http://www.w3.org/Graphics/SVG/1.1/DTD/svg11.dtd">
<svg width="100%" height="100%" viewBox="0 0 1024 1024" version="1.1" xmlns="http://www.w3.org/2000/svg" xmlns:xlink="http://www.w3.org/1999/xlink" xml:space="preserve" xmlns:serif="http://www.serif.com/" style="fill-rule:evenodd;clip-rule:evenodd;stroke-linejoin:round;stroke-miterlimit:2;">
    <path d="M236,223.987C236.72,223.967 237.439,223.972 238.157,224L748,224L748,224.007C759.371,223.688 770.553,229.469 776.613,240.014L923.48,495.624C923.942,496.4 924.371,497.194 924.764,498.003C926.959,502.488 928.005,507.274 928,512.004C928.005,516.734 926.959,521.52 924.765,526.005C924.371,526.814 923.942,527.609 923.48,528.385L776.613,783.994C770.545,794.555 759.338,800.337 747.952,800L641.13,800C640.389,800.026 639.646,800.026 638.902,800L494.007,800C493.323,800.024 492.638,800.026 491.952,800.006L385.13,800.006C384.34,800.033 383.547,800.032 382.753,800L191.562,800L191.562,799.98L129.13,799.98C123.381,800.182 117.505,798.831 112.152,795.756L112.02,795.68C96.743,786.902 91.467,767.372 100.244,752.095L238.203,511.99L100.244,271.885C91.467,256.608 96.743,237.079 112.02,228.301L112.152,228.225C117.154,225.351 122.612,223.984 128,223.981L128,223.98L236,223.98L236,223.987Z"/>
</svg>
