<?xml version="1.0" encoding="UTF-8" standalone="no"?>
<!DOCTYPE svg PUBLIC "-//W3C//DTD SVG 1.1//EN" "http://www.w3.org/Graphics/SVG/1.1/DTD/svg11.dtd">
<svg width="100%" height="100%" viewBox="0 0 1024 1024" version="1.1" xmlns="http://www.w3.org/2000/svg" xmlns:xlink="http://www.w3.org/1999/xlink" xml:space="preserve" xmlns:serif="http://www.serif.com/" style="fill-rule:evenodd;clip-rule:evenodd;stroke-linejoin:round;stroke-miterlimit:2;">
    <path d="M620,223.982C620.766,223.96 621.532,223.967 622.293,224L748,224L748,224.007C759.371,223.688 770.553,229.469 776.613,240.014L923.48,495.624C923.942,496.4 924.371,497.194 924.764,498.003C926.959,502.488 928.005,507.274 928,512.004C928.005,516.734 926.959,521.52 924.765,526.005C924.371,526.814 923.942,527.609 923.48,528.385L776.613,783.994C770.545,794.555 759.338,800.337 747.952,800L641.13,800C640.389,800.026 639.646,800.026 638.902,800L536,800L536,799.975L513.13,799.975C507.381,800.176 501.505,798.826 496.152,795.75L496.02,795.674C480.743,786.896 475.467,767.367 484.244,752.09L622.203,511.985L484.244,271.879C475.467,256.602 480.743,237.073 496.02,228.295L496.152,228.219C501.154,225.345 506.612,223.978 512,223.975L512,223.975L620,223.975L620,223.982ZM364,223.987C375.371,223.669 386.553,229.449 392.613,239.995L539.48,495.604C539.942,496.38 540.371,497.174 540.764,497.984C542.959,502.469 544.005,507.255 544,511.985C544.005,516.715 542.959,521.5 540.765,525.985C540.371,526.795 539.942,527.589 539.48,528.365L392.613,783.974C386.545,794.535 375.338,800.317 363.952,799.98L257.13,799.98C256.389,800.006 255.646,800.007 254.902,799.98L237.832,799.98C237.206,799.999 236.579,799.999 235.952,799.98L129.13,799.98C123.381,800.182 117.505,798.831 112.152,795.756L112.02,795.68C96.743,786.902 91.467,767.372 100.244,752.095L238.203,511.99L100.244,271.885C91.467,256.608 96.743,237.079 112.02,228.301L112.152,228.225C117.154,225.351 122.612,223.984 128,223.981L128,223.98L236.298,223.98C236.696,223.973 237.093,223.973 237.492,223.98L364,223.98L364,223.987Z"/>
</svg>
