<?xml version="1.0" encoding="UTF-8" standalone="no"?>
<!DOCTYPE svg PUBLIC "-//W3C//DTD SVG 1.1//EN" "http://www.w3.org/Graphics/SVG/1.1/DTD/svg11.dtd">
<svg width="100%" height="100%" viewBox="0 0 1024 1024" version="1.1" xmlns="http://www.w3.org/2000/svg" xmlns:xlink="http://www.w3.org/1999/xlink" xml:space="preserve" xmlns:serif="http://www.serif.com/" style="fill-rule:evenodd;clip-rule:evenodd;stroke-linejoin:round;stroke-miterlimit:2;">
    <path d="M656.066,112L656.151,112L656.266,112.001L656.31,112.001L656.342,112.001L656.447,112.002L656.601,112.004L656.743,112.005L656.919,112.009L657.039,112.011L657.218,112.015L657.334,112.018L657.497,112.023L657.546,112.024L657.572,112.025L657.63,112.027L657.751,112.032L657.854,112.035L657.902,112.037L657.925,112.038L657.977,112.04C668.507,112.468 678.167,116.294 685.891,122.452C692.474,127.679 697.739,134.666 700.878,142.947C701.489,144.553 702.017,146.201 702.455,147.886L702.488,148.01L702.496,148.042L744.289,304L880,304C906.492,304 928,325.508 928,352C928,378.492 906.492,400 880,400L862.369,400L734.373,877.636C727.668,902.657 702.334,917.752 677.292,912L336,912C335.666,912 335.333,911.997 335,911.99C334.667,911.997 334.334,912 334,912L330,912L329.933,912L329.84,912L329.713,911.999L329.69,911.999L329.673,911.999C328.967,911.994 328.263,911.974 327.56,911.939L327.477,911.935L327.348,911.928L327.225,911.921L327.178,911.918C317.903,911.379 309.332,908.202 302.206,903.128C293.396,896.886 286.628,887.652 283.617,876.415L155.948,400L144,400C117.508,400 96,378.492 96,352C96,325.508 117.508,304 144,304L280.681,304L320.098,156.908C321.694,131.855 342.547,112 368,112L656,112L656.066,112ZM762.982,400L255.336,400L366.814,816L651.503,816L762.982,400ZM450.142,784.613C468.623,781.362 480.989,763.718 477.738,745.236L427.491,459.595C424.24,441.114 406.596,428.749 388.114,432C369.633,435.251 357.268,452.895 360.519,471.376L410.766,757.017C414.017,775.499 431.661,787.864 450.142,784.613ZM573.858,783.481C555.377,780.23 543.011,762.586 546.262,744.105L596.509,458.464C599.76,439.982 617.404,427.617 635.886,430.868C654.367,434.12 666.732,451.763 663.481,470.245L613.234,755.886C609.983,774.367 592.339,786.732 573.858,783.481ZM405.794,208L380.068,304L644.902,304L619.176,208L405.794,208Z"/>
</svg>
