<?xml version="1.0" encoding="UTF-8" standalone="no"?>
<!DOCTYPE svg PUBLIC "-//W3C//DTD SVG 1.1//EN" "http://www.w3.org/Graphics/SVG/1.1/DTD/svg11.dtd">
<svg width="100%" height="100%" viewBox="0 0 1024 1024" version="1.1" xmlns="http://www.w3.org/2000/svg" xmlns:xlink="http://www.w3.org/1999/xlink" xml:space="preserve" xmlns:serif="http://www.serif.com/" style="fill-rule:evenodd;clip-rule:evenodd;stroke-linejoin:round;stroke-miterlimit:2;">
    <path d="M591.138,636.333C538.919,678.637 472.398,704 400,704C232.218,704 96,567.782 96,400C96,232.218 232.218,96 400,96C567.782,96 704,232.218 704,400C704,472.364 678.661,538.857 636.387,591.072L668.737,623.442C690.078,617.768 713.792,623.297 730.516,640.026L959.361,868.94C984.334,893.921 984.328,934.477 959.348,959.45C934.367,984.423 893.811,984.417 868.838,959.436L639.993,730.522C623.248,713.773 617.734,690.021 623.447,668.661L591.138,636.333ZM400,192C514.798,192 608,285.202 608,400C608,514.798 514.798,608 400,608C285.202,608 192,514.798 192,400C192,285.202 285.202,192 400,192Z"/>
</svg>
