<?xml version="1.0" encoding="UTF-8" standalone="no"?>
<!DOCTYPE svg PUBLIC "-//W3C//DTD SVG 1.1//EN" "http://www.w3.org/Graphics/SVG/1.1/DTD/svg11.dtd">
<svg width="100%" height="100%" viewBox="0 0 1024 1024" version="1.1" xmlns="http://www.w3.org/2000/svg" xmlns:xlink="http://www.w3.org/1999/xlink" xml:space="preserve" xmlns:serif="http://www.serif.com/" style="fill-rule:evenodd;clip-rule:evenodd;stroke-linejoin:round;stroke-miterlimit:2;">
    <path d="M560,879.636C560,853.345 538.655,832 512.364,832L511.636,832C485.345,832 464,853.345 464,879.636L464,944.364C464,970.655 485.345,992 511.636,992L512.364,992C538.655,992 560,970.655 560,944.364L560,879.636ZM369.751,854.382C382.897,831.613 375.084,802.456 352.315,789.31L351.685,788.946C328.916,775.801 299.758,783.613 286.613,806.382L254.249,862.438C241.103,885.207 248.916,914.365 271.685,927.51L272.315,927.874C295.084,941.02 324.242,933.207 337.387,910.438L369.751,854.382ZM686.613,910.438C699.758,933.207 728.916,941.02 751.685,927.874L752.315,927.51C775.084,914.365 782.897,885.207 769.751,862.438L737.387,806.382C724.242,783.613 695.084,775.801 672.315,788.946L671.685,789.31C648.916,802.456 641.103,831.613 654.249,854.382L686.613,910.438ZM512,224C670.952,224 800,353.048 800,512C800,670.952 670.952,800 512,800C353.048,800 224,670.952 224,512C224,353.048 353.048,224 512,224ZM217.618,737.387C240.387,724.242 248.199,695.084 235.054,672.315L234.69,671.685C221.544,648.916 192.387,641.103 169.618,654.249L113.562,686.613C90.793,699.758 82.98,728.916 96.126,751.685L96.49,752.315C109.635,775.084 138.793,782.897 161.562,769.751L217.618,737.387ZM862.438,769.751C885.207,782.897 914.365,775.084 927.51,752.315L927.874,751.685C941.02,728.916 933.207,699.758 910.438,686.613L854.382,654.249C831.613,641.103 802.456,648.916 789.31,671.685L788.946,672.315C775.801,695.084 783.613,724.242 806.382,737.387L862.438,769.751ZM144.364,560C170.655,560 192,538.655 192,512.364L192,511.636C192,485.345 170.655,464 144.364,464L79.636,464C53.345,464 32,485.345 32,511.636L32,512.364C32,538.655 53.345,560 79.636,560L144.364,560ZM944.364,560C970.655,560 992,538.655 992,512.364L992,511.636C992,485.345 970.655,464 944.364,464L879.636,464C853.345,464 832,485.345 832,511.636L832,512.364C832,538.655 853.345,560 879.636,560L944.364,560ZM169.618,369.751C192.387,382.897 221.544,375.084 234.69,352.315L235.054,351.685C248.199,328.916 240.387,299.758 217.618,286.613L161.562,254.249C138.793,241.103 109.635,248.916 96.49,271.685L96.126,272.315C82.98,295.084 90.793,324.242 113.562,337.387L169.618,369.751ZM910.438,337.387C933.207,324.242 941.02,295.084 927.874,272.315L927.51,271.685C914.365,248.916 885.207,241.103 862.438,254.249L806.382,286.613C783.613,299.758 775.801,328.916 788.946,351.685L789.31,352.315C802.456,375.084 831.613,382.897 854.382,369.751L910.438,337.387ZM286.613,217.618C299.758,240.387 328.916,248.199 351.685,235.054L352.315,234.69C375.084,221.544 382.897,192.387 369.751,169.618L337.387,113.562C324.242,90.793 295.084,82.98 272.315,96.126L271.685,96.49C248.916,109.635 241.103,138.793 254.249,161.562L286.613,217.618ZM769.751,161.562C782.897,138.793 775.084,109.635 752.315,96.49L751.685,96.126C728.916,82.98 699.758,90.793 686.613,113.562L654.249,169.618C641.103,192.387 648.916,221.544 671.685,234.69L672.315,235.054C695.084,248.199 724.242,240.387 737.387,217.618L769.751,161.562ZM560,79.636C560,53.345 538.655,32 512.364,32L511.636,32C485.345,32 464,53.345 464,79.636L464,144.364C464,170.655 485.345,192 511.636,192L512.364,192C538.655,192 560,170.655 560,144.364L560,79.636Z"/>
</svg>
