<?xml version="1.0" encoding="UTF-8" standalone="no"?>
<!DOCTYPE svg PUBLIC "-//W3C//DTD SVG 1.1//EN" "http://www.w3.org/Graphics/SVG/1.1/DTD/svg11.dtd">
<svg width="100%" height="100%" viewBox="0 0 1024 1024" version="1.1" xmlns="http://www.w3.org/2000/svg" xmlns:xlink="http://www.w3.org/1999/xlink" xml:space="preserve" xmlns:serif="http://www.serif.com/" style="fill-rule:evenodd;clip-rule:evenodd;stroke-linejoin:round;stroke-miterlimit:2;">
    <path d="M512,96C741.597,96 928,282.403 928,512C928,741.597 741.597,928 512,928C282.403,928 96,741.597 96,512C96,282.403 282.403,96 512,96ZM512,192C688.613,192 832,335.387 832,512C832,688.613 688.613,832 512,832C335.387,832 192,688.613 192,512C192,335.387 335.387,192 512,192ZM503.806,508.395L662.473,349.917C681.066,331.345 711.239,331.363 729.811,349.957L730.354,350.501C748.926,369.095 748.908,399.268 730.314,417.839L539.166,608.761C538.717,609.249 538.254,609.732 537.778,610.208C530.727,617.263 522.02,621.663 512.902,623.408L512.727,623.441L512.644,623.456L512.605,623.464L512.535,623.476L512.443,623.493L512.386,623.504L512.31,623.518L512.198,623.537L512.159,623.544L512.129,623.549L512.014,623.569L511.872,623.593C510.28,623.863 508.661,624.054 507.02,624.162L506.898,624.17L506.756,624.179L506.72,624.181L506.691,624.183L506.592,624.189L506.483,624.195L506.432,624.198L506.381,624.2L506.286,624.205L506.203,624.209L506.144,624.212L506.067,624.216L505.979,624.22L505.919,624.222L505.857,624.225L505.751,624.229L505.672,624.233L505.63,624.234L505.569,624.236L505.43,624.241L505.364,624.243L505.337,624.244L505.281,624.246L505.104,624.251L505.055,624.252L505.041,624.252L504.993,624.254L504.768,624.258L504.742,624.259C504.438,624.265 504.133,624.268 503.829,624.268L503.817,624.268L503.685,624.267L503.553,624.267L503.541,624.267L503.507,624.267L503.295,624.265L503.26,624.264C498.449,624.21 493.806,623.446 489.434,622.072L489.338,622.042L489.266,622.019C482.181,619.773 475.514,615.843 469.896,610.229L341.788,482.199C323.05,463.472 323.041,433.055 341.768,414.316C360.495,395.578 390.912,395.569 409.65,414.296L503.806,508.395Z"/>
</svg>
